# xmcd CD database file
#
# Track frame offsets:
#	183
#	13175
#	26625
#	38395
#	56453
#	69535
#	82105
#	93493
#	107203
#	118525
#	131775
#	145898
#	158878
#	170083
#
# Disc length: 2446 seconds
#
# Revision: 2
# Processed by: cddbd v1.5.2PL0 Copyright (c) Steve Scherf et al.
# Submitted via: jetAudio 7
#
DISCID=c0098c0e
DTITLE=Various Artist - Trucker Songs 7. Folge
DYEAR=0
DGENRE=Truckersongs
TTITLE0=Tom Astor - Mein Auto kennt schon den Heimweg
TTITLE1=Nashwille Music Company - Es geht weiter
TTITLE2=Framk Baum and Country Green mit Tommy Oregon and Jill Morris - Hei
TTITLE2=ße Girls - Starke Kerls
TTITLE3=Kactus - Immer unterwegs
TTITLE4=Tom Astor - Ich bin einer so wie du
TTITLE5=Ralf Paulsen - Ich fahr' nen Supertruck
TTITLE6=Dä Drüjje Piter - Kilometerfresser
TTITLE7=Tom Astor - Irgendwo am Horizont
TTITLE8=Kactus - Bärenstarke Cowboys
TTITLE9=Nashwille Music Company - Meilenweit
TTITLE10=Framk Baum and Country Green mit Tommy Oregon and Jill Morris - Sc
TTITLE10=hlaf nicht ein hinterm Lenkrad
TTITLE11=Dä Drüjje Piter - Sie ist ein Truckerfan
TTITLE12=Ralf Paulsen - Goodbye Highway's
TTITLE13=Country Pickers - Highway Dreams
EXTD=
EXTT0=
EXTT1=
EXTT2=
EXTT3=
EXTT4=
EXTT5=
EXTT6=
EXTT7=
EXTT8=
EXTT9=
EXTT10=
EXTT11=
EXTT12=
EXTT13=
PLAYORDER=
